<svg width="20" height="20" viewBox="0 0 20 20" fill="none" xmlns="http://www.w3.org/2000/svg">
<path d="M3.73211 1.875L3.53586 2.09C3.53586 2.09 3.06336 2.5 2.75461 2.5V3.75C3.17961 3.75 3.47336 3.5775 3.75086 3.41875V6.25H5.00086V1.875H3.73211ZM6.87586 3.75V5H17.5009V3.75H6.87586ZM4.06336 7.5C3.8581 7.49975 3.6548 7.54 3.46512 7.61844C3.27544 7.69687 3.10309 7.81195 2.95795 7.95709C2.81281 8.10224 2.69773 8.27458 2.61929 8.46426C2.54086 8.65395 2.50061 8.85724 2.50086 9.0625V9.375H3.75086V9.0625C3.75086 8.92687 3.92773 8.75 4.06336 8.75C4.19898 8.75 4.37586 8.92687 4.37586 9.0625L4.35711 9.08125L4.31711 9.12125L2.69648 10.6837L2.50086 10.8587V11.875H5.62586V10.625H4.55086L5.09836 10.0781L5.17648 10.0194L5.15773 10.0006C5.47148 9.74437 5.62648 9.36312 5.62648 9.06312C5.62665 8.85781 5.58633 8.65447 5.50783 8.46475C5.42933 8.27503 5.3142 8.10264 5.16902 7.95746C5.02384 7.81228 4.85145 7.69715 4.66173 7.61865C4.47201 7.54015 4.26867 7.49984 4.06336 7.5V7.5ZM6.87586 9.375V10.625H17.5009V9.375H6.87586ZM2.50086 13.125V14.375H3.36023L3.20398 14.6287L3.12586 14.7662V15.625H4.06336C4.19898 15.625 4.37586 15.8019 4.37586 15.9375C4.37586 16.0731 4.19898 16.25 4.06336 16.25H2.50086V17.5H4.06336C4.92773 17.5 5.62586 16.8019 5.62586 15.9375C5.62586 15.3094 5.20211 14.8775 4.66961 14.6287L4.92273 14.1994L5.00086 14.0431V13.125H2.50086ZM6.87586 15V16.25H17.5009V15H6.87586Z" fill="white"/>
</svg>
