<svg width="40" height="40" viewBox="0 0 40 40" fill="none" xmlns="http://www.w3.org/2000/svg">
<path d="M17.5009 5C12.6834 5 8.75085 8.9325 8.75085 13.75C8.75085 16.7625 10.2884 19.44 12.6184 21.0163C8.1596 22.9287 5.00085 27.35 5.00085 32.5H7.50085C7.50085 26.9625 11.9634 22.5 17.5009 22.5C19.2209 22.5 20.8184 22.9475 22.2259 23.7125C20.7859 25.4916 20.0005 27.7112 20.0009 30C20.0009 35.5075 24.4934 40 30.0009 40C35.5084 40 40.0009 35.5075 40.0009 30C40.0009 24.4925 35.5084 20 30.0009 20C27.8946 20.0028 25.8433 20.6723 24.1409 21.9125C23.5884 21.5663 22.9909 21.275 22.3834 21.015C23.573 20.2127 24.5477 19.1308 25.222 17.8642C25.8962 16.5976 26.2495 15.1849 26.2509 13.75C26.2509 8.9325 22.3184 5 17.5009 5ZM17.5009 7.5C20.9671 7.5 23.7509 10.2838 23.7509 13.75C23.7509 17.2163 20.9671 20 17.5009 20C14.0346 20 11.2509 17.2163 11.2509 13.75C11.2509 10.2838 14.0346 7.5 17.5009 7.5ZM30.0009 22.5C34.1584 22.5 37.5009 25.8425 37.5009 30C37.5009 34.1575 34.1584 37.5 30.0009 37.5C25.8434 37.5 22.5009 34.1575 22.5009 30C22.5009 25.8425 25.8434 22.5 30.0009 22.5ZM27.1509 25.35L25.3509 27.15L28.2046 30L25.3546 32.85L27.1509 34.65L30.0009 31.7962L32.8509 34.6462L34.6509 32.85L31.7971 30L34.6471 27.15L32.8509 25.35L30.0009 28.2038L27.1509 25.3538V25.35Z" fill="white"/>
</svg>
