<svg width="40" height="40" viewBox="0 0 40 40" fill="none" xmlns="http://www.w3.org/2000/svg">
<path d="M11.2509 8.75C7.12335 8.75 3.75085 12.1225 3.75085 16.25C3.75237 17.4311 4.03281 18.5951 4.56934 19.6473C5.10586 20.6995 5.8833 21.6101 6.83835 22.305C3.53835 23.9425 1.25085 27.33 1.25085 31.25H3.75085C3.75085 27.0925 7.09335 23.75 11.2509 23.75C15.4084 23.75 18.7509 27.0925 18.7509 31.25H21.2509C21.2509 27.0925 24.5934 23.75 28.7509 23.75C32.9084 23.75 36.2509 27.0925 36.2509 31.25H38.7509C38.7509 27.33 36.4634 23.9425 33.1634 22.305C34.1186 21.6103 34.8961 20.6997 35.4326 19.6475C35.9692 18.5952 36.2495 17.4311 36.2509 16.25C36.2509 12.1225 32.8784 8.75 28.7509 8.75C24.6234 8.75 21.2509 12.1225 21.2509 16.25C21.2524 17.4311 21.5328 18.5951 22.0693 19.6473C22.6059 20.6995 23.3833 21.6101 24.3384 22.305C22.5111 23.2014 20.9986 24.631 20.0009 26.405C19.0031 24.631 17.4907 23.2014 15.6634 22.305C16.6186 21.6103 17.3961 20.6997 17.9326 19.6475C18.4692 18.5952 18.7495 17.4311 18.7509 16.25C18.7509 12.1225 15.3784 8.75 11.2509 8.75ZM11.2509 11.25C14.0259 11.25 16.2509 13.475 16.2509 16.25C16.2509 19.025 14.0259 21.25 11.2509 21.25C8.47585 21.25 6.25085 19.025 6.25085 16.25C6.25085 13.475 8.47585 11.25 11.2509 11.25ZM28.7509 11.25C31.5259 11.25 33.7509 13.475 33.7509 16.25C33.7509 19.025 31.5259 21.25 28.7509 21.25C25.9759 21.25 23.7509 19.025 23.7509 16.25C23.7509 13.475 25.9759 11.25 28.7509 11.25Z" fill="white"/>
</svg>
